<svg width="15" height="12" viewBox="0 0 15 12" fill="none" xmlns="http://www.w3.org/2000/svg">
<path d="M5.83986 11.0804C5.70852 11.0806 5.57845 11.0548 5.45712 11.0045C5.33578 10.9542 5.22559 10.8805 5.13286 10.7874L1.29302 6.94763C1.1993 6.85498 1.12482 6.74472 1.07386 6.62318C1.0229 6.50164 0.996477 6.37123 0.996098 6.23944C0.995719 6.10766 1.0214 5.97709 1.07165 5.85527C1.12191 5.73344 1.19575 5.62275 1.28894 5.52956C1.38212 5.43637 1.49281 5.36252 1.61464 5.31225C1.73646 5.26199 1.86702 5.23631 1.99881 5.23668C2.1306 5.23705 2.26101 5.26347 2.38255 5.31442C2.50409 5.36537 2.61436 5.43985 2.70702 5.53356L5.83986 8.66636L13.293 1.21325C13.4807 1.02638 13.7348 0.921593 13.9996 0.921876C14.2645 0.922159 14.5184 1.02749 14.7056 1.21476C14.8929 1.40203 14.9982 1.65594 14.9985 1.92077C14.9987 2.18561 14.8939 2.43972 14.707 2.62736L6.54687 10.7875C6.45413 10.8805 6.34392 10.9543 6.22259 11.0045C6.10126 11.0548 5.97119 11.0806 5.83986 11.0804Z" fill="#EE58B6"/>
</svg>
